<svg width="125" height="91" viewBox="0 0 125 91" fill="none" xmlns="http://www.w3.org/2000/svg">
<path d="M9.91821e-05 39.8948C9.91821e-05 34.4343 3.08799 30.0461 7.327 27.8379L7.32383 27.8347L14.5338 23.6033L14.5375 23.6069C18.6112 20.7668 24.1857 20.1291 29.1024 22.9563L67.8275 45.2229C77.42 50.7385 83.3334 60.96 83.3334 72.0251V72.1165C83.3334 77.606 80.2137 82.0115 75.941 84.208L75.9427 84.2097L67.6234 89.1589L67.6105 89.1458C63.6739 91.3369 58.6688 91.6172 54.2098 89.0427L29.0856 74.5371L11.5084 72.8L14.4925 66.0867C5.49815 60.4477 9.91821e-05 50.5632 9.91821e-05 39.8948Z" fill="#FF7A36"/>
<path d="M20.368 28.1112L59.0931 50.3778C68.6857 55.8935 74.599 66.1149 74.599 77.1801V77.2714C74.599 87.735 63.2718 94.2748 54.2101 89.0429L29.0858 74.5373L11.5086 72.8002L14.4928 66.0868C5.4979 60.4479 -0.000144958 50.5634 -0.000144958 39.8949C-0.000144958 29.442 11.3063 22.9008 20.368 28.1112Z" fill="url(#paint0_linear)"/>
<path d="M54.3434 70.8571C54.3434 73.3353 55.8502 76.2142 57.7089 77.2875C59.5675 78.3607 61.0743 77.2216 61.0743 74.7433C61.0743 72.265 59.5675 69.3861 57.7089 68.3129C55.8502 67.2396 54.3434 68.3788 54.3434 70.8571Z" fill="#BDE3FF"/>
<path d="M39.6914 62.3978C39.6914 64.8761 41.1982 67.755 43.0569 68.8282C44.9155 69.9012 46.4224 68.7623 46.4224 66.2841C46.4224 63.8058 44.9155 60.9269 43.0569 59.8536C41.1982 58.7804 39.6914 59.9196 39.6914 62.3978Z" fill="#BDE3FF"/>
<path d="M25.0394 53.9382C25.0394 56.4165 26.5463 59.2954 28.4049 60.3687C30.2635 61.4419 31.7704 60.3027 31.7704 57.8245C31.7704 55.3462 30.2635 52.4673 28.4049 51.3941C26.5463 50.3211 25.0394 51.46 25.0394 53.9382Z" fill="#BDE3FF"/>
<path d="M10.3871 45.479C10.3871 47.9573 11.8939 50.8362 13.7526 51.9094C15.6112 52.9827 17.118 51.8435 17.118 49.3653C17.118 46.887 15.6112 44.0081 13.7526 42.9351C11.8939 41.8616 10.3871 43.0008 10.3871 45.479Z" fill="#BDE3FF"/>
<path d="M48.9936 6.70872L48.9905 6.70555L56.2004 2.4741L56.2041 2.47776C60.2781 -0.362327 65.8523 -1.00002 70.769 1.82713L109.494 24.0937C119.087 29.6094 125 39.8308 125 50.896V50.9875C125 56.477 121.88 60.8826 117.608 63.0791L117.609 63.0808L109.29 68.03L109.277 68.0171C107.125 69.2149 104.655 69.8413 102.126 69.7415L102.341 70.6655L93.6067 75.8201L91.1374 65.1887L91.1467 65.1833L90.8181 64.9937L91.1377 65.189L93.6069 75.8203L77.3867 57.2388L57.1252 45.5408C47.5595 40.0181 41.6667 29.8115 41.6667 18.7661V18.7659C41.6667 13.3049 44.7546 8.91673 48.9936 6.70872Z" fill="#00D16D"/>
<path d="M93.6067 75.8203L102.341 70.6658L99.8718 60.0342L91.1377 65.189L93.6067 75.8203Z" fill="#007A6E"/>
<path d="M62.035 6.98183L100.76 29.2484C110.352 34.7641 116.266 44.9855 116.266 56.0507V56.1423C116.266 66.6059 104.939 73.1457 95.8766 67.9137L90.818 64.9933L91.1376 65.1886L93.6068 75.82L77.3866 57.2384L57.1251 45.5404C47.5594 40.0177 41.6666 29.8112 41.6666 18.7658V18.7655C41.6668 8.31264 52.9733 1.77138 62.035 6.98183Z" fill="#009F5E"/>
<path d="M96.0104 49.7279C96.0104 52.2062 97.5172 55.0851 99.3759 56.1583C101.234 57.2313 102.741 56.0924 102.741 53.6141C102.741 51.1359 101.234 48.257 99.3759 47.1837C97.5172 46.1105 96.0104 47.2496 96.0104 49.7279Z" fill="#4F038A" fill-opacity="0.55"/>
<path d="M81.3583 41.2682C81.3583 43.7465 82.8651 46.6254 84.7238 47.6986C86.5824 48.7716 88.0892 47.6327 88.0892 45.1544C88.0892 42.6761 86.5824 39.7972 84.7238 38.724C82.8651 37.6508 81.3583 38.7899 81.3583 41.2682Z" fill="#4F038A" fill-opacity="0.55"/>
<path d="M66.7061 32.8089C66.7061 35.2871 68.2129 38.166 70.0715 39.2393C71.9302 40.3123 73.437 39.1734 73.437 36.6951C73.437 34.2168 71.9302 31.3379 70.0715 30.2647C68.2129 29.1917 66.7061 30.3306 66.7061 32.8089Z" fill="#4F038A" fill-opacity="0.55"/>
<path d="M52.0541 24.3497C52.0541 26.828 53.5609 29.7069 55.4196 30.7802C57.2782 31.8534 58.785 30.7142 58.785 28.236C58.785 25.7577 57.2782 22.8788 55.4196 21.8055C53.5609 20.7323 52.0541 21.8715 52.0541 24.3497Z" fill="#4F038A" fill-opacity="0.55"/>
<defs>
<linearGradient id="paint0_linear" x1="91.9999" y1="33" x2="-45.0693" y2="89.5881" gradientUnits="userSpaceOnUse">
<stop stop-color="#FF7347"/>
<stop offset="1" stop-color="#FFDA7A"/>
</linearGradient>
</defs>
</svg>