<svg viewBox="0 0 90 118" fill="none" xmlns="http://www.w3.org/2000/svg">
    <path d="M53.7916 114.288L1.37259 9.88739L17.4444 0.608249C17.9707 0.164596 18.6276 -0.0508927 19.3805 0.0101815L52.8866 2.73179L86.3924 38.6997C88.3873 40.841 89.7104 44.1438 89.7104 46.9818V58.8545C89.7104 81.233 82.3442 97.6947 70.1724 104.819L70.177 104.828L69.6696 105.121C69.6587 105.127 69.6481 105.134 69.6373 105.14L53.7916 114.288Z" fill="url(#paint0_linear)"/>
    <path d="M1.3725 9.88739L17.4443 0.608249C17.9706 0.164596 18.6275 -0.0508927 19.3804 0.0101815L52.8865 2.73179L36.8239 12.0022L1.3725 9.88739Z" fill="url(#paint1_linear)"/>
    <path d="M36.8241 12.0023L70.3299 47.97C72.3248 50.1115 73.6479 53.4142 73.6479 56.2522V68.1248C73.6479 99.7117 58.9846 119.535 36.8241 117.907C14.6636 93.9461 0.000198364 57.1911 0.000198364 25.6042V13.7316C0.000198364 10.8936 1.32332 9.11872 3.31826 9.28074L36.8241 12.0023Z" fill="#06DAAE"/>
    <path d="M39.3355 115.034C48.5147 115.034 56.2934 110.792 61.8307 102.768C67.6208 94.3785 70.6814 82.3989 70.6814 68.1248V56.2522C70.6814 54.1605 69.6443 51.5861 68.1589 49.992L35.8292 15.2868C35.5768 15.0162 35.2325 14.8494 34.864 14.8194L4.56975 12.3587C4.15629 12.326 3.74882 12.4659 3.44414 12.7466C3.13969 13.0275 2.96638 13.4228 2.96638 13.8371V25.6042C2.96638 40.3812 6.27637 56.6405 12.5387 72.6243C18.7885 88.5762 27.5125 103.069 37.7672 114.536C38.0431 114.844 38.4349 115.023 38.8486 115.03C39.0117 115.032 39.174 115.034 39.3355 115.034ZM34.0507 17.7298L65.9884 52.0143C66.9566 53.0535 67.7146 54.915 67.7146 56.2524V68.125C67.7146 81.7944 64.8358 93.1913 59.3891 101.084C54.4723 108.209 47.6131 112.003 39.5418 112.066C19.4186 89.2869 5.9332 54.6348 5.9332 25.6044V15.4458L34.0507 17.7298Z" fill="white"/>
    <path d="M37.868 82.8724L49.4975 74.0809C51.0045 72.9417 51.4668 70.88 50.5908 69.2063C49.4834 67.0906 46.7415 66.4757 44.8367 67.9157L37.8682 73.1837L12.6542 25.0076C12.0105 23.7779 10.4168 23.4202 9.30942 24.2572C8.43341 24.9194 8.16445 26.118 8.67379 27.0911L37.868 82.8724Z" fill="white"/>
    <path d="M36.824 95.3557C49.3966 102.614 59.625 94.8818 59.625 78.1187C59.625 61.3555 49.3966 41.812 36.824 34.5534C32.906 32.2913 29.0404 31.4079 25.6453 31.9986C23.7659 32.3254 22.0447 33.0931 20.531 34.2812C19.0161 35.4688 17.7315 37.0599 16.7119 39.0102C14.9532 42.3741 14.0232 46.7936 14.0232 51.7906C14.0232 68.5535 24.2517 88.0971 36.824 95.3557ZM36.824 41.4043C46.5632 47.0273 54.4867 62.1663 54.4867 75.1521C54.4867 88.1376 46.5632 94.1278 36.824 88.5048C27.0849 82.8818 19.1613 67.7427 19.1613 54.757C19.1613 50.8844 19.8806 47.4619 21.2415 44.8595C22.0316 43.3481 23.0274 42.1146 24.2021 41.1936C25.3766 40.2722 26.7108 39.6769 28.1678 39.4239C30.7949 38.9666 33.788 39.6513 36.824 41.4043Z" fill="white"/>
  <defs>
    <linearGradient id="paint0_linear" x1="64.6847" y1="66.8439" x2="59.0634" y2="57.1073" gradientUnits="userSpaceOnUse">
    <stop stop-color="#236568"/>
    <stop offset="1" stop-color="#2F878A"/>
    </linearGradient>
    <linearGradient id="paint1_linear" x1="52.8862" y1="6.00122" x2="1.3725" y2="6.00122" gradientUnits="userSpaceOnUse">
    <stop stop-color="#236568"/>
    <stop offset="1" stop-color="#2F878A"/>
    </linearGradient>
  </defs>
</svg>