<svg viewBox="0 0 108 119" fill="none" xmlns="http://www.w3.org/2000/svg">
  <path d="M16.6153 53.25C16.1253 53.25 15.6465 53.0531 15.3014 52.7073C14.9559 52.3578 14.7595 51.8785 14.7595 51.3915C14.7595 50.9008 14.9559 50.4252 15.3014 50.0794C15.6465 49.7336 16.1253 49.533 16.6153 49.533C17.1013 49.533 17.5802 49.7336 17.9252 50.0794C18.2707 50.4249 18.4711 50.9045 18.4711 51.3915C18.4711 51.8785 18.2707 52.358 17.9252 52.7073C17.5802 53.0531 17.1013 53.25 16.6153 53.25Z" fill="#B1DEFF"/>
  <path d="M35.6671 118.9C34.6424 118.893 33.815 118.057 33.8222 117.031C33.8259 116.005 34.6609 115.176 35.6891 115.183C36.7133 115.187 37.5372 116.023 37.5335 117.053C37.5263 118.075 36.6985 118.9 35.6777 118.9C35.6742 118.9 35.6708 118.9 35.6671 118.9ZM41.2601 116.637C41.034 115.637 41.6573 114.641 42.6556 114.41C43.6541 114.18 44.6489 114.804 44.8789 115.807C45.1092 116.807 44.4856 117.803 43.4871 118.034C43.3462 118.064 43.2052 118.082 43.0677 118.082C42.2215 118.083 41.4607 117.499 41.2601 116.637ZM27.8581 117.952C26.8631 117.711 26.2509 116.707 26.4883 115.707C26.7297 114.711 27.7315 114.098 28.7302 114.336C29.7248 114.577 30.3374 115.581 30.096 116.581C29.8919 117.432 29.1311 118.004 28.2961 118.004C28.1512 118.005 28.0063 117.986 27.8581 117.952ZM48.4126 114.548C47.9635 113.626 48.3419 112.515 49.2585 112.061H49.2625C50.1791 111.607 51.2926 111.987 51.7453 112.908C52.1979 113.83 51.816 114.942 50.8989 115.395C50.6355 115.525 50.357 115.588 50.0787 115.588C49.3958 115.589 48.7354 115.206 48.4126 114.548ZM20.4753 115.235C19.5587 114.771 19.1949 113.655 19.6551 112.737C20.1191 111.823 21.2324 111.455 22.1493 111.916C23.0622 112.381 23.4298 113.496 22.9695 114.414C22.643 115.061 21.9898 115.436 21.3106 115.436C21.0286 115.436 20.7425 115.369 20.4753 115.235ZM54.9597 110.983C54.444 110.095 54.748 108.957 55.6354 108.441C56.5223 107.928 57.6542 108.229 58.1703 109.117C58.6861 110.006 58.3816 111.143 57.4946 111.659C57.2013 111.827 56.882 111.908 56.5666 111.908C55.9245 111.909 55.3047 111.578 54.9597 110.983ZM14.0992 109.872C13.5424 109.009 13.791 107.861 14.6522 107.303C15.513 106.749 16.6638 106.998 17.2166 107.861C17.7734 108.723 17.5248 109.872 16.6638 110.429C16.3522 110.63 16.0032 110.727 15.6579 110.727C15.049 110.727 14.4519 110.425 14.0992 109.872ZM61.4065 107.236C60.8943 106.348 61.1948 105.211 62.0823 104.698C62.9692 104.181 64.1048 104.486 64.6209 105.374C65.1332 106.262 64.8322 107.396 63.9452 107.913C63.6521 108.084 63.3326 108.165 63.0137 108.165C62.3756 108.165 61.7516 107.831 61.4065 107.236ZM67.8574 103.493C67.3451 102.605 67.6456 101.467 68.5331 100.955C69.42 100.438 70.556 100.739 71.068 101.627C71.5838 102.516 71.2793 103.653 70.3923 104.17C70.1027 104.337 69.7797 104.419 69.4646 104.419C68.8262 104.419 68.2024 104.088 67.8574 103.493ZM13.6945 103.62C12.6698 103.564 11.887 102.69 11.9387 101.664C11.9946 100.638 12.8665 99.8542 13.8909 99.9062C14.9156 99.962 15.6985 100.835 15.6468 101.861C15.5948 102.854 14.7747 103.623 13.7947 103.623C13.7613 103.623 13.7279 103.62 13.6945 103.62ZM74.3079 99.7465C73.7922 98.8619 74.0928 97.7245 74.9799 97.2078C75.8669 96.6948 77.0024 96.996 77.5186 97.8842C78.0309 98.7727 77.7299 99.91 76.8429 100.423C76.5496 100.594 76.2303 100.676 75.9149 100.676C75.273 100.676 74.6493 100.341 74.3079 99.7465ZM80.7551 96.0034C80.2428 95.1152 80.5433 93.9777 81.4308 93.4647C82.3177 92.948 83.4537 93.2529 83.9657 94.1375C84.4814 95.026 84.177 96.1634 83.2937 96.6799C83.0006 96.8471 82.6776 96.9289 82.3622 96.9289C81.7239 96.9289 81.1001 96.5982 80.7551 96.0034ZM15.2387 96.3455C14.4442 95.6988 14.3216 94.5279 14.9676 93.7325C15.6171 92.9369 16.7823 92.8145 17.5805 93.465C18.3747 94.1117 18.4936 95.2826 17.8476 96.078C17.4805 96.5278 16.9458 96.7619 16.4076 96.7619C15.9958 96.7617 15.5837 96.6279 15.2387 96.3455ZM20.7872 91.4759C20.275 90.5877 20.576 89.4502 21.4629 88.9372C22.3499 88.4205 23.4859 88.7254 24.0016 89.6137C24.5138 90.5022 24.2096 91.6394 23.3224 92.1524C23.0291 92.3233 22.7102 92.4014 22.3944 92.4014C21.756 92.4016 21.1325 92.0709 20.7872 91.4759ZM27.2378 87.7366C26.7256 86.8484 27.03 85.7109 27.917 85.1979C28.8042 84.6812 29.9399 84.9861 30.452 85.8744C30.9642 86.7629 30.6637 87.9003 29.7767 88.4131C29.4836 88.584 29.1641 88.662 28.8489 88.662C28.2066 88.6623 27.5833 88.3314 27.2378 87.7366ZM33.6923 83.9975C33.1801 83.109 33.4806 81.9716 34.368 81.4588C35.255 80.9421 36.3905 81.2468 36.9028 82.1353C37.4189 83.0236 37.1145 84.161 36.2275 84.674C35.9342 84.8449 35.6149 84.9269 35.2997 84.9269C34.6572 84.9267 34.0376 84.592 33.6923 83.9975ZM40.1431 80.258C39.6309 79.3695 39.9354 78.2323 40.8223 77.7193C41.7093 77.2026 42.8411 77.5075 43.3573 78.3958C43.8695 79.284 43.5685 80.4215 42.6781 80.9345C42.3885 81.1054 42.0696 81.1871 41.7538 81.1871C41.1119 81.1874 40.4882 80.8527 40.1431 80.258ZM46.5974 76.5187C46.0817 75.6304 46.3862 74.493 47.2731 73.98C48.1601 73.467 49.2961 73.7682 49.8081 74.6565C50.3238 75.545 50.0198 76.6822 49.1326 77.1951C48.8393 77.3661 48.5204 77.4478 48.2046 77.4478C47.5625 77.448 46.9427 77.1134 46.5974 76.5187ZM53.048 72.7794C52.5358 71.8911 52.8402 70.7536 53.7272 70.2407C54.6146 69.7277 55.7502 70.0326 56.2622 70.9171C56.7744 71.8056 56.4739 72.9431 55.5869 73.4596C55.2938 73.6268 54.9743 73.7085 54.6591 73.7085C54.0168 73.7087 53.3935 73.3741 53.048 72.7794ZM59.5025 69.0401C58.9903 68.1516 59.2908 67.0141 60.1778 66.5013C61.065 65.9884 62.2008 66.293 62.7128 67.1778C63.2289 68.0698 62.9245 69.2035 62.0375 69.7202C61.7444 69.8874 61.4249 69.9694 61.1097 69.9694C60.4674 69.9694 59.8441 69.6385 59.5025 69.0401ZM65.9534 65.3007C65.4411 64.4122 65.7453 63.2787 66.6325 62.762C67.5195 62.249 68.6555 62.554 69.1675 63.4422C69.6797 64.3305 69.3788 65.4642 68.4918 65.9809C68.1985 66.1484 67.8757 66.2301 67.5638 66.2301C66.9222 66.2301 66.2984 65.8955 65.9534 65.3007ZM72.4076 61.5614C71.8954 60.6731 72.1964 59.5394 73.0834 59.0227C73.9703 58.5097 75.1063 58.8146 75.6183 59.7029C76.134 60.5912 75.83 61.7249 74.9426 62.2416C74.6493 62.4088 74.3304 62.4906 74.0146 62.4906C73.3727 62.4908 72.749 62.1599 72.4076 61.5614ZM78.8582 57.8258C78.346 56.9338 78.6505 55.8001 79.5374 55.2834C80.4246 54.7704 81.5604 55.0753 82.0724 55.9636C82.5846 56.8521 82.2804 57.9893 81.3932 58.5023C81.104 58.6732 80.781 58.7512 80.4654 58.7512C79.827 58.7512 79.2035 58.4206 78.8582 57.8258ZM85.3128 54.0865C84.7966 53.1982 85.101 52.0608 85.988 51.5441C86.8754 51.0311 88.011 51.336 88.523 52.2243C89.0352 53.1125 88.7347 54.25 87.8477 54.763C87.5546 54.9339 87.2351 55.0122 86.92 55.0122C86.2776 55.0122 85.6543 54.6812 85.3128 54.0865ZM91.8378 50.4215C91.1324 49.6781 91.1621 48.5035 91.9046 47.7973V47.7936C92.6505 47.0874 93.8234 47.1209 94.5288 47.8642C95.2337 48.6076 95.204 49.7859 94.4618 50.4921C94.1019 50.8342 93.6416 51.0014 93.1852 51.0014C92.6913 51.0014 92.2014 50.8082 91.8378 50.4215ZM21.4627 48.589C20.9505 47.7005 21.2549 46.5633 22.1419 46.0503C23.0288 45.5373 24.1648 45.8422 24.6769 46.7305C25.1891 47.6188 24.8846 48.7562 23.9977 49.2692C23.7046 49.4366 23.385 49.5184 23.0699 49.5184C22.4276 49.5184 21.8043 49.1837 21.4627 48.589ZM27.917 44.8571C27.4047 43.9649 27.7092 42.8314 28.5962 42.3184C29.4836 41.8054 30.6191 42.1066 31.1311 42.9949C31.6434 43.8869 31.3391 45.0243 30.452 45.5373C30.1588 45.7047 29.8435 45.7865 29.5281 45.7865C28.8858 45.7865 28.2625 45.4519 27.917 44.8571ZM96.3213 44.5079C95.3114 44.3258 94.6433 43.3593 94.8219 42.3481C95.0035 41.3407 95.9688 40.668 96.9745 40.8466C97.9839 41.0286 98.6559 41.9952 98.4776 43.0063C98.3141 43.9057 97.5312 44.5376 96.6515 44.5376C96.5439 44.5373 96.4326 44.5262 96.3213 44.5079ZM34.3752 41.1215C33.863 40.2333 34.1674 39.0958 35.0544 38.5828C35.9414 38.0698 37.0774 38.3747 37.5894 39.263C38.1016 40.1513 37.7971 41.2887 36.9102 41.8017C36.6169 41.9726 36.2975 42.0507 35.9822 42.0507C35.3401 42.0507 34.7168 41.72 34.3752 41.1215ZM40.8295 37.3896C40.3173 36.5014 40.6217 35.3639 41.5087 34.8509C42.3961 34.3379 43.5317 34.6429 44.0437 35.5311C44.5559 36.4196 44.2517 37.5568 43.3645 38.0698C43.0714 38.2407 42.756 38.3188 42.4407 38.3188C41.7983 38.3188 41.175 37.9844 40.8295 37.3896ZM94.0126 36.1927C93.5711 35.2636 93.9681 34.1559 94.8924 33.7135C95.8204 33.2748 96.9265 33.6689 97.3643 34.598C97.8021 35.5237 97.4088 36.6312 96.4845 37.0736C96.2287 37.1962 95.9574 37.2519 95.6903 37.2519C94.9963 37.2522 94.3282 36.8618 94.0126 36.1927ZM47.2877 33.6578C46.7755 32.7695 47.08 31.632 47.9669 31.119C48.8539 30.6061 49.9899 30.911 50.5019 31.7992C51.0141 32.6877 50.7097 33.8252 49.8227 34.3379C49.5294 34.5051 49.2101 34.5869 48.8947 34.5869C48.2526 34.5869 47.6293 34.2525 47.2877 33.6578ZM89.7037 31.6878C88.8165 31.1748 88.5123 30.0373 89.0245 29.1491C89.5368 28.2606 90.6723 27.9559 91.5595 28.4689C92.4465 28.9819 92.7509 30.1193 92.2387 31.0076C91.8932 31.6023 91.2699 31.9367 90.6315 31.9367C90.3159 31.9367 89.9968 31.855 89.7037 31.6878ZM53.742 29.9259C53.2298 29.0339 53.5343 27.9002 54.4212 27.3872C55.3087 26.8742 56.4442 27.1754 56.9562 28.0636C57.4684 28.9556 57.1642 30.0894 56.277 30.6023C55.9839 30.7733 55.6648 30.855 55.3492 30.855C54.7109 30.855 54.0876 30.5206 53.742 29.9259ZM83.3345 28.3646C82.384 27.9854 81.9203 26.9039 82.3026 25.9485C82.6813 24.9971 83.7612 24.5324 84.7115 24.9151H84.7152C85.6655 25.2943 86.1255 26.3761 85.7471 27.3275C85.4574 28.056 84.7597 28.4984 84.0246 28.4984C83.7948 28.4986 83.5606 28.4538 83.3345 28.3646ZM60.3526 26.4764C60.037 25.4987 60.5715 24.4504 61.5478 24.1346C62.5203 23.8185 63.567 24.3538 63.8859 25.3315C64.1975 26.3089 63.6632 27.3535 62.6907 27.6733C62.4976 27.7327 62.3083 27.7624 62.1191 27.7624C61.3361 27.7624 60.6084 27.2606 60.3526 26.4764ZM76.5681 26.5284C75.555 26.3761 74.8573 25.4318 75.0096 24.4172C75.1615 23.3987 76.1083 22.6999 77.1214 22.8525C78.1347 23.0048 78.8325 23.9528 78.6804 24.9674C78.5431 25.8893 77.7489 26.5509 76.8466 26.5509C76.7539 26.5507 76.6609 26.5433 76.5681 26.5284ZM67.5603 24.5956C67.4787 23.5696 68.236 22.6739 69.2603 22.5884C70.281 22.5067 71.1754 23.2649 71.2607 24.2909C71.3463 25.3131 70.585 26.2088 69.5645 26.2945C69.5126 26.2983 69.4608 26.302 69.4087 26.302C68.4549 26.3017 67.6419 25.5658 67.5603 24.5956Z" fill="#B1DEFF"/>
  <path d="M88.8353 93.1711C88.3488 93.1711 87.8699 92.9704 87.5214 92.6246C87.1759 92.2788 86.9795 91.7995 86.9795 91.3125C86.9795 90.8219 87.1759 90.3423 87.5214 89.9967C87.8702 89.6512 88.3488 89.454 88.8353 89.454C89.325 89.454 89.8038 89.651 90.1489 89.9967C90.4944 90.3423 90.691 90.8219 90.691 91.3125C90.691 91.7995 90.4942 92.2788 90.1489 92.6246C89.8036 92.9704 89.3248 93.1711 88.8353 93.1711Z" fill="#B1DEFF"/>
  <path d="M17.4082 58.8608C24.1761 58.035 29.2843 54.257 28.8178 50.4225C28.3512 46.588 22.4865 44.1491 15.7187 44.975C8.9508 45.8009 3.84257 49.5789 4.30913 53.4133C4.77568 57.2478 10.6403 59.6867 17.4082 58.8608Z" fill="#E19780"/>
  <path d="M27.3871 9.68273L28.666 4.37077L23.2445 1.23595C20.6341 -0.575656 17.0485 -0.468135 13.1194 2.04038C5.992 6.59133 0.236607 17.7141 0.0072727 27.3687C-0.0924379 31.5685 0.838349 34.8738 2.47894 37.0572L2.47662 37.0609L11.2511 48.2972C11.4093 48.4994 11.5892 48.6508 11.7852 48.7558L17.2238 51.9004L22.3742 30.5063L25.0374 24.0162L25.0351 24.0153C26.5957 20.1339 27.5139 15.9798 27.5139 12.0682C27.5139 11.2338 27.4678 10.441 27.3871 9.68273Z" fill="url(#paint0_linear)"/>
  <path d="M32.8768 15.1632C32.8768 4.73554 26.3701 0.0996003 18.4823 5.13567C11.355 9.68638 5.5994 20.8091 5.37007 30.4637C5.27035 34.6635 6.20114 37.9688 7.84173 40.1522L7.83941 40.1559L16.6142 51.3922C17.8453 52.9686 20.3946 51.4946 21.6257 48.4945L30.4005 27.1113L30.3981 27.1104C31.9585 23.2289 32.8768 19.0748 32.8768 15.1632Z" fill="url(#paint1_linear)"/>
  <path d="M29.1641 12.6285L25.117 10.2951L25.1168 10.2958C23.5194 9.44795 21.4672 9.56871 19.2281 10.8634C14.134 13.8087 10.0044 21.7107 10.0044 28.5128C10.0044 32.2526 11.2543 34.8777 13.2248 35.9973L13.2234 36.0003L16.9213 38.1384L29.1641 12.6285Z" fill="url(#paint2_linear)"/>
  <path d="M30.399 28.5263C33.4646 21.3209 32.6501 14.0718 28.5797 12.3349C24.5093 10.598 18.7245 15.0311 15.6589 22.2364C12.5933 29.4418 13.4078 36.6909 17.4782 38.4278C21.5486 40.1647 27.3334 35.7316 30.399 28.5263Z" fill="#E9E5F6"/>
  <path d="M89.458 99.0671C96.2259 98.2412 101.334 94.4632 100.868 90.6287C100.401 86.7942 94.5363 84.3553 87.7685 85.1812C81.0006 86.0071 75.8924 89.7851 76.3589 93.6196C76.8255 97.4541 82.6901 99.893 89.458 99.0671Z" fill="#13B4B2"/>
  <path d="M99.4115 49.8759L100.69 44.564L95.2689 41.4294C92.6586 39.6178 89.0729 39.7253 85.1439 42.2338C78.0164 46.7845 72.261 57.9073 72.0317 67.5618C71.932 71.7617 72.8628 75.067 74.5033 77.2504L74.501 77.2541L83.2756 88.4904C83.4335 88.6926 83.6137 88.844 83.8094 88.949L89.248 92.0936L94.3986 70.6992L97.0618 64.2092L97.0595 64.2083C98.6201 60.3268 99.5384 56.1728 99.5384 52.2611C99.5384 51.427 99.4922 50.6341 99.4115 49.8759Z" fill="url(#paint3_linear)"/>
  <path d="M104.901 55.3563C104.901 44.9287 98.3947 40.2927 90.5069 45.3288C83.3797 49.8795 77.6241 61.0022 77.3947 70.6568C77.295 74.8566 78.2258 78.1619 79.8664 80.3453L79.8641 80.349L88.6388 91.5853C89.8699 93.1617 92.4192 91.6877 93.6503 88.6876L102.425 67.3044L102.423 67.3035C103.983 63.4218 104.901 59.2677 104.901 55.3563Z" fill="url(#paint4_linear)"/>
  <path d="M101.188 52.8216L97.1412 50.4882L97.141 50.4889C95.5435 49.6411 93.4913 49.7618 91.2523 51.0565C86.1582 54.0018 82.0286 61.9038 82.0286 68.7059C82.0286 72.4457 83.2784 75.0708 85.2488 76.1904L85.2474 76.1934L88.9452 78.3315L101.188 52.8216Z" fill="url(#paint5_linear)"/>
  <path d="M102.449 68.749C105.515 61.5436 104.7 54.2945 100.63 52.5576C96.5596 50.8207 90.7748 55.2538 87.7092 62.4592C84.6436 69.6645 85.4581 76.9136 89.5285 78.6505C93.5989 80.3874 99.3837 75.9543 102.449 68.749Z" fill="#E9E5F6"/>
  <defs>
    <linearGradient id="paint0_linear" x1="12.9363" y1="28.2551" x2="22.5406" y2="11.6445" gradientUnits="userSpaceOnUse">
    <stop stop-color="#D34E24"/>
    <stop offset="1" stop-color="#FFC27A"/>
    </linearGradient>
    <linearGradient id="paint1_linear" x1="5.36287" y1="36.1609" x2="39.0721" y2="36.1609" gradientUnits="userSpaceOnUse">
    <stop stop-color="#FF7347"/>
    <stop offset="1" stop-color="#FFDA7A"/>
    </linearGradient>
    <linearGradient id="paint2_linear" x1="18.7017" y1="21.4248" x2="22.5009" y2="14.8542" gradientUnits="userSpaceOnUse">
    <stop stop-color="#C5BAEB"/>
    <stop offset="1" stop-color="#D7D1EB"/>
    </linearGradient>
    <linearGradient id="paint3_linear" x1="84.9609" y1="68.4483" x2="94.5652" y2="51.8377" gradientUnits="userSpaceOnUse">
    <stop stop-color="#2CAB85"/>
    <stop offset="1" stop-color="#7AFFE7"/>
    </linearGradient>
    <linearGradient id="paint4_linear" x1="77.3875" y1="76.375" x2="111.097" y2="76.375" gradientUnits="userSpaceOnUse">
    <stop stop-color="#29B189"/>
    <stop offset="1" stop-color="#99F4F4"/>
    </linearGradient>
    <linearGradient id="paint5_linear" x1="90.7259" y1="61.6179" x2="94.5251" y2="55.0473" gradientUnits="userSpaceOnUse">
    <stop stop-color="#C5BAEB"/>
    <stop offset="1" stop-color="#D7D1EB"/>
    </linearGradient>
  </defs>
</svg>