<svg viewBox="0 0 108 108" fill="none" xmlns="http://www.w3.org/2000/svg">
                  <path d="M7.07003 57.2909L12.6318 54.2253L27.1734 62.6211L59.9604 91.6717L59.9267 103.638L54.3649 106.703L21.5492 87.7572L7.00739 79.3615L7.07003 57.2909Z" fill="#3D99E2"/>
                  <path d="M0.0680695 41.2443C0.0712357 40.1648 0.453873 39.4067 1.07024 39.0519C1.06812 39.0531 1.06559 39.0538 1.06369 39.055L40.9884 15.8534C41.6098 15.4923 42.4702 15.5435 43.4207 16.0922L60.9017 26.1847L104.932 65.1956C106.748 66.8046 108.006 69.4266 108 71.5876L107.966 83.6537C107.965 84.0547 107.823 84.3371 107.594 84.47L67.6692 107.672C67.7017 107.653 67.7279 107.624 67.7565 107.6C67.5224 107.801 67.167 107.816 66.7637 107.583L20.8865 81.0961L3.40572 71.0036C1.51763 69.9136 -0.00597382 67.2717 0.000144958 65.1049L0.0680695 41.2443ZM1.73278 38.8428C1.7756 38.838 1.81674 38.8295 1.8604 38.8274C1.81674 38.8295 1.7756 38.838 1.73278 38.8428ZM1.19975 38.9905C1.23772 38.9728 1.274 38.9523 1.31345 38.9375C1.274 38.9523 1.23772 38.9728 1.19975 38.9905ZM1.45646 38.8964C1.49696 38.8852 1.53577 38.8709 1.57775 38.8624C1.53577 38.8709 1.49696 38.8852 1.45646 38.8964ZM67.8934 107.437C67.8707 107.474 67.85 107.515 67.8226 107.546C67.85 107.514 67.8704 107.474 67.8934 107.437ZM68.0409 106.855C68.0407 106.956 68.0314 107.049 68.0143 107.134C68.0314 107.049 68.0407 106.956 68.0409 106.855ZM67.9884 107.215C67.9736 107.267 67.9607 107.32 67.9398 107.365C67.9609 107.32 67.9736 107.267 67.9884 107.215ZM2.16035 38.834C2.11501 38.83 2.07218 38.8323 2.02768 38.8308C2.07218 38.8323 2.11501 38.83 2.16035 38.834ZM3.14523 39.112C3.10303 39.0926 3.06254 39.0793 3.02098 39.062C3.06232 39.0793 3.10303 39.0926 3.14523 39.112ZM2.80435 38.9753C2.75963 38.9599 2.71638 38.9508 2.6723 38.938C2.71638 38.951 2.75963 38.9601 2.80435 38.9753ZM2.47529 38.8829C2.43036 38.873 2.38732 38.8694 2.34324 38.8622C2.38754 38.8694 2.43036 38.8732 2.47529 38.8829Z" fill="#ACABB1"/>
                  <path d="M40.9883 15.8534C41.6095 15.4923 42.4701 15.5435 43.4204 16.0922L60.9014 26.1847L20.9767 49.3865L3.49566 39.294C2.54518 38.7454 1.68476 38.6943 1.06355 39.0552L40.9883 15.8534Z" fill="#D8D8DA"/>
                  <path d="M67.6692 107.672L107.594 84.47C107.823 84.3371 107.965 84.0542 107.966 83.6536L68.0409 106.855C68.0398 107.256 67.8981 107.539 67.6692 107.672Z" fill="#D8D8DA"/>
                  <path d="M68.0409 106.855L107.966 83.6535L108 71.5875L68.0753 94.7893L68.0409 106.855Z" fill="#C6C5CB"/>
                  <path d="M104.195 81.4764L104.205 78.1605L71.8451 96.9657L71.8359 100.281L104.195 81.4764Z" fill="#77767E"/>
                  <path d="M65.0069 88.3973L104.932 65.1957L60.9013 26.1849L20.9765 49.3865L65.0069 88.3973Z" fill="#C6C5CB"/>
                  <path d="M68.0753 94.7896L108 71.5878C108.006 69.4267 106.748 66.8048 104.932 65.1957L65.007 88.3976C66.8234 90.0066 68.0812 92.6283 68.0753 94.7896Z" fill="#C6C5CB"/>
                  <path d="M3.49545 39.2939C1.60735 38.204 0.0738297 39.0779 0.0677109 41.2444L0 65.105C-0.00611877 67.2716 1.51748 69.9136 3.40558 71.0037L20.8866 81.0962L66.7638 107.583C67.4677 107.989 68.0387 107.661 68.041 106.855L68.0752 94.7892C68.0813 92.6281 66.8233 90.0062 65.0069 88.3971L20.9765 49.3864L3.49545 39.2939Z" fill="#ACABB1"/>
                  <path d="M31.0767 47.5458L56.3067 32.9795L71.2539 46.2865L46.0241 60.8529L31.0767 47.5458Z" fill="#BDFDFF"/>
                  <path d="M21.6116 65.6866L27.1733 62.6211L12.6317 54.2253L7.06997 57.2909L21.6116 65.6866Z" fill="#9BC9FF"/>
                  <path d="M54.3987 94.7373L59.9604 91.6717L27.1732 62.621L21.6114 65.6866L54.3987 94.7373Z" fill="#71B8FF"/>
                  <path d="M54.3647 106.703L59.9263 103.638L59.9604 91.6719L54.3987 94.7374L54.3647 106.703Z" fill="#9BC9FF"/>
                  <path d="M7.07009 57.291L7.00766 79.3615L21.5492 87.7572L54.365 106.703L54.3989 94.7374L21.6117 65.6867L7.07009 57.291Z" fill="url(#paint0_linear)"/>
                  <path d="M12.6319 54.2253L27.1735 62.6211L59.9604 91.6718L57.8726 92.8583L25.0854 63.8076L10.5436 55.4119L12.6319 54.2253Z" fill="url(#paint1_radial)"/>
                  <path d="M57.8384 98.8413L59.9263 97.6548L59.9604 91.6718L57.8724 92.8583L57.8384 98.8413Z" fill="#515BE0"/>
                  <path d="M79.1186 51.4353L78.7921 52.6693C78.678 53.1013 78.3795 53.4888 77.8988 53.7664L75.489 55.1575C74.2622 55.8658 72.3125 55.5897 71.1342 54.5405C70.4177 53.9026 70.1515 53.1258 70.3287 52.4556L70.6548 51.2216C70.6499 51.2398 70.6491 51.2585 70.6451 51.2767C70.748 50.8232 71.0475 50.4137 71.5483 50.1245L73.9581 48.7334C75.1849 48.0251 77.1346 48.3012 78.3129 49.3504C79.0366 49.9946 79.299 50.7801 79.1113 51.4547C79.1132 51.448 79.1169 51.4418 79.1186 51.4353ZM68.9869 57.2848L68.6604 58.5188C68.5462 58.9508 68.2478 59.3383 67.767 59.6161L65.3573 61.0072C64.1305 61.7155 62.1808 61.4394 61.0025 60.3902C60.2859 59.7523 60.0195 58.9755 60.1967 58.3053L60.5232 57.0713C60.5184 57.0895 60.5176 57.108 60.5133 57.1264C60.6163 56.6729 60.9158 56.2634 61.4166 55.9742L63.8263 54.5831C65.0531 53.8748 67.0028 54.1509 68.1811 55.2001C68.9046 55.8443 69.1672 56.6298 68.9795 57.3044C68.9812 57.2975 68.985 57.2916 68.9869 57.2848ZM50.0648 64.1552L50.3909 62.9213C50.3862 62.9394 50.3852 62.9584 50.3812 62.9763C50.4841 62.5228 50.7836 62.1134 51.2844 61.8242L53.6952 60.4322C54.921 59.7245 56.8707 60.0006 58.049 61.0498C58.7727 61.6942 59.0351 62.4796 58.8476 63.1543C58.8493 63.1478 58.853 63.1417 58.8547 63.1351L58.5282 64.3691C58.4141 64.8007 58.116 65.188 57.6357 65.4652L55.2247 66.8571C53.9979 67.5655 52.0484 67.2893 50.8699 66.2401C50.1538 65.6021 49.8876 64.8252 50.0648 64.1552ZM85.6178 57.2198L85.2917 58.4538C85.1776 58.8858 84.8787 59.2735 84.3978 59.5515L81.988 60.9427C80.7612 61.651 78.8126 61.3757 77.6343 60.3265C76.9177 59.6886 76.6515 58.9118 76.8287 58.2416L77.1552 57.0076C77.1504 57.0258 77.1495 57.0448 77.1453 57.0627C77.2483 56.6092 77.5478 56.1997 78.0486 55.9105L80.4583 54.5194C81.6851 53.8111 83.6348 54.0872 84.8131 55.1364C85.5366 55.7804 85.7986 56.5653 85.6109 57.2397C85.6121 57.2329 85.6161 57.2268 85.6178 57.2198ZM75.1596 64.3037C75.0454 64.7357 74.7468 65.1234 74.2656 65.4015L71.8559 66.7926C70.629 67.5009 68.6804 67.2256 67.5021 66.1764C66.7856 65.5386 66.5191 64.7617 66.6963 64.0915L67.0229 62.8576C67.018 62.8755 67.0172 62.8943 67.0132 62.9124C67.1161 62.4589 67.4156 62.0495 67.9164 61.7603L70.3261 60.3691C71.5529 59.6608 73.5026 59.9369 74.6809 60.9861C75.4042 61.6301 75.6664 62.4148 75.4787 63.089C75.4806 63.0824 75.4844 63.0761 75.4863 63.0693L75.1596 64.3037ZM56.8907 68.7075C56.8858 68.7256 56.885 68.7442 56.8808 68.7623C56.9837 68.3088 57.2832 67.8994 57.784 67.6104L60.195 66.2182C61.4208 65.5105 63.3705 65.7866 64.5488 66.8358C65.2723 67.48 65.5345 68.2649 65.3468 68.9391C65.3486 68.9326 65.3524 68.9262 65.3543 68.9195L65.0278 70.1535C64.9137 70.5852 64.6152 70.9727 64.1347 71.2499L61.7237 72.6421C60.4969 73.3504 58.5482 73.0751 57.3699 72.0259C56.6534 71.3881 56.3872 70.6112 56.5644 69.941L56.8907 68.7075ZM83.654 62.7943C83.6494 62.8124 83.6483 62.831 83.6443 62.8491C83.7472 62.3956 84.0468 61.9862 84.5475 61.697L86.9573 60.3058C88.1841 59.5975 90.1338 59.8736 91.3121 60.9228C92.035 61.5664 92.2972 62.3515 92.1092 63.0261C92.1111 63.0196 92.1149 63.0132 92.1168 63.0067L91.7907 64.2407C91.6766 64.6727 91.3781 65.0604 90.8972 65.338L88.4874 66.7291C87.2606 67.4374 85.3109 67.1613 84.1337 66.1129C83.4171 65.4751 83.1509 64.6982 83.3281 64.028L83.654 62.7943ZM73.5223 68.644C73.5174 68.6621 73.5166 68.6807 73.5123 68.699C73.6153 68.2455 73.9148 67.8361 74.4156 67.5469L76.8253 66.1558C78.0521 65.4474 80.0018 65.7236 81.1801 66.7728C81.903 67.4163 82.1652 68.2014 81.9773 68.876C81.9789 68.8695 81.983 68.8632 81.9849 68.8566L81.6583 70.0906C81.5442 70.5226 81.2457 70.9103 80.7648 71.1879L78.355 72.579C77.1282 73.2874 75.1785 73.0112 74.0013 71.9629C73.2847 71.325 73.0185 70.5481 73.1957 69.878L73.5223 68.644ZM63.3901 74.4937C63.3855 74.5118 63.3844 74.5304 63.3804 74.5488C63.4833 74.0952 63.7829 73.6858 64.2836 73.3966L66.6944 72.0046C67.9202 71.2969 69.8697 71.5731 71.0482 72.6223C71.7711 73.2658 72.0335 74.0512 71.8455 74.7255C71.8472 74.719 71.8512 74.7129 71.8527 74.7063L71.5262 75.9403C71.412 76.3719 71.114 76.7594 70.6337 77.0366L68.2227 78.4285C66.9959 79.1369 65.0462 78.8607 63.8689 77.8124C63.1524 77.1745 62.8862 76.3976 63.0634 75.7275L63.3901 74.4937Z" fill="#E0E0E2"/>
                  <path d="M78.7916 52.6692L79.1182 51.4352C79.004 51.867 78.7056 52.2547 78.2246 52.5323L77.8981 53.7663C78.379 53.4887 78.6775 53.101 78.7916 52.6692Z" fill="#D8D8DA"/>
                  <path d="M75.8147 53.9234L75.4883 55.1574L77.8981 53.7662L78.2246 52.532L75.8147 53.9234Z" fill="#D8D8DA"/>
                  <path d="M70.6541 51.2215L70.3276 52.4555C70.1504 53.1256 70.4166 53.9025 71.1331 54.5404C72.3114 55.5896 74.2611 55.8657 75.4879 55.1574L75.8145 53.9234C74.5876 54.6317 72.6379 54.3556 71.4597 53.3064C70.7433 52.6685 70.4769 51.8919 70.6541 51.2215Z" fill="#D8D8DA"/>
                  <path d="M71.5476 50.1247C70.3208 50.833 70.2814 52.2577 71.4599 53.3065C72.6382 54.3557 74.5878 54.6318 75.8147 53.9235L78.2244 52.5324C79.4512 51.824 79.4907 50.3994 78.3121 49.3506C77.1339 48.3014 75.1842 48.0253 73.9574 48.7336L71.5476 50.1247Z" fill="#E0E0E2"/>
                  <path d="M68.6603 58.5188L68.9868 57.2849C68.8727 57.7166 68.5742 58.1043 68.0935 58.3819L67.767 59.6159C68.2477 59.3383 68.5462 58.9508 68.6603 58.5188Z" fill="#D8D8DA"/>
                  <path d="M65.6833 59.7732L65.3572 61.0072L67.7669 59.6161L68.0933 58.3819L65.6833 59.7732Z" fill="#D8D8DA"/>
                  <path d="M60.5227 57.0714L60.1962 58.3053C60.019 58.9755 60.2852 59.7524 61.0018 60.3902C62.1801 61.4394 64.1298 61.7156 65.3566 61.0072L65.6831 59.7732C64.4563 60.4816 62.5066 60.2055 61.3283 59.1563C60.6118 58.5184 60.3455 57.7417 60.5227 57.0714Z" fill="#D8D8DA"/>
                  <path d="M61.4163 55.9746C60.1894 56.6829 60.15 58.1076 61.3285 59.1564C62.5068 60.2056 64.4565 60.4817 65.6833 59.7733L68.0931 58.3822C69.3199 57.6739 69.3593 56.2492 68.1808 55.2004C67.0025 54.1512 65.0528 53.8751 63.826 54.5834L61.4163 55.9746Z" fill="#E0E0E2"/>
                  <path d="M58.5284 64.3692L58.855 63.1352C58.7409 63.5668 58.4428 63.954 57.9625 64.2312L57.636 65.4652C58.1161 65.188 58.4141 64.8007 58.5284 64.3692Z" fill="#D8D8DA"/>
                  <path d="M55.5511 65.6231L55.2246 66.8571L57.6358 65.4651L57.9619 64.2311L55.5511 65.6231Z" fill="#D8D8DA"/>
                  <path d="M50.3902 62.9212L50.0639 64.1552C49.8867 64.8253 50.1529 65.6022 50.8695 66.2401C52.0477 67.2893 53.9974 67.5654 55.2242 66.8571L55.5508 65.6231C54.324 66.3314 52.3743 66.0553 51.196 65.0061C50.4794 64.3682 50.213 63.5914 50.3902 62.9212Z" fill="#D8D8DA"/>
                  <path d="M51.2842 61.8241C50.0573 62.5324 50.0179 63.9571 51.1964 65.0059C52.3747 66.0551 54.3244 66.3312 55.5512 65.6229L57.9622 64.2309C59.188 63.5232 59.2272 62.0988 58.0489 61.0498C56.8706 60.0006 54.9209 59.7244 53.6952 60.4321L51.2842 61.8241Z" fill="#E0E0E2"/>
                  <path d="M85.2911 58.4541L85.6177 57.2202C85.5036 57.6522 85.2049 58.0399 84.7237 58.3179L84.3972 59.5519C84.8783 59.2741 85.1768 58.8861 85.2911 58.4541Z" fill="#D8D8DA"/>
                  <path d="M82.3134 59.7092L81.9871 60.943L84.397 59.5518L84.7231 58.3176L82.3134 59.7092Z" fill="#D8D8DA"/>
                  <path d="M77.1542 57.0082L76.8281 58.2422C76.6509 58.9123 76.9171 59.6892 77.6337 60.3271C78.812 61.3763 80.7606 61.6513 81.9874 60.9432L82.314 59.7092C81.0872 60.4176 79.1385 60.1423 77.9602 59.0931C77.2435 58.4552 76.977 57.6783 77.1542 57.0082Z" fill="#D8D8DA"/>
                  <path d="M78.0476 55.9112C76.8208 56.6195 76.7814 58.0442 77.9599 59.0929C79.1382 60.1421 81.0868 60.4172 82.3136 59.7091L84.7234 58.318C85.9502 57.6096 85.9907 56.1862 84.8122 55.137C83.6337 54.0878 81.6842 53.8117 80.4574 54.52L78.0476 55.9112Z" fill="#E0E0E2"/>
                  <path d="M75.1593 64.3041L75.4858 63.0701C75.3717 63.5021 75.073 63.8898 74.5919 64.1678L74.2654 65.4018C74.7463 65.124 75.045 64.7361 75.1593 64.3041Z" fill="#D8D8DA"/>
                  <path d="M72.1821 65.5588L71.8555 66.7927L74.2653 65.4014L74.5918 64.1674L72.1821 65.5588Z" fill="#D8D8DA"/>
                  <path d="M67.0223 62.8579L66.6957 64.0919C66.5185 64.762 66.7847 65.5389 67.5013 66.1768C68.6796 67.226 70.6282 67.501 71.855 66.7925L72.1812 65.5585C70.9543 66.2669 69.0057 65.9916 67.8274 64.9424C67.1113 64.3047 66.8451 63.5281 67.0223 62.8579Z" fill="#D8D8DA"/>
                  <path d="M67.9158 61.7608C66.689 62.4691 66.6495 63.8938 67.828 64.9426C69.0063 65.9918 70.955 66.2668 72.1818 65.5587L74.5915 64.1676C75.8183 63.4592 75.8588 62.0358 74.6803 60.9866C73.502 59.9374 71.5523 59.6613 70.3255 60.3696L67.9158 61.7608Z" fill="#E0E0E2"/>
                  <path d="M65.0275 70.1534L65.354 68.9194C65.2399 69.3512 64.9414 69.7387 64.4609 70.0158L64.1344 71.2498C64.6149 70.9726 64.9134 70.5851 65.0275 70.1534Z" fill="#D8D8DA"/>
                  <path d="M62.0499 71.4078L61.7238 72.642L64.1346 71.25L64.4609 70.0161L62.0499 71.4078Z" fill="#D8D8DA"/>
                  <path d="M56.8906 68.7073L56.5645 69.9413C56.3873 70.6115 56.6535 71.3883 57.37 72.0262C58.5483 73.0754 60.497 73.3505 61.7238 72.6424L62.0503 71.4084C60.8235 72.1167 58.8748 71.8414 57.6965 70.7922C56.9796 70.1542 56.7134 69.3775 56.8906 68.7073Z" fill="#D8D8DA"/>
                  <path d="M57.7837 67.6103C56.5569 68.3186 56.5174 69.7433 57.6959 70.7921C58.8742 71.8413 60.8229 72.1163 62.0497 71.4082L64.4607 70.0163C65.6865 69.3086 65.7268 67.8852 64.5485 66.836C63.3702 65.7868 61.4205 65.5106 60.1947 66.2183L57.7837 67.6103Z" fill="#E0E0E2"/>
                  <path d="M91.7902 64.2404L92.1167 63.0065C92.0026 63.4385 91.7041 63.8262 91.2232 64.104L90.8971 65.338C91.3776 65.0601 91.6761 64.6724 91.7902 64.2404Z" fill="#D8D8DA"/>
                  <path d="M88.8129 65.4952L88.4866 66.7292L90.8963 65.3381L91.2227 64.1039L88.8129 65.4952Z" fill="#D8D8DA"/>
                  <path d="M83.6535 62.7941L83.3269 64.0281C83.1497 64.6983 83.4159 65.4751 84.1325 66.113C85.3097 67.1612 87.2594 67.4373 88.4862 66.7292L88.813 65.4952C87.5862 66.2035 85.6365 65.9274 84.4592 64.879C83.7425 64.2412 83.4763 63.4645 83.6535 62.7941Z" fill="#D8D8DA"/>
                  <path d="M84.5471 61.6973C83.3202 62.4057 83.2808 63.8303 84.4593 64.8791C85.6365 65.9273 87.5862 66.2034 88.813 65.4953L91.2228 64.1041C92.4496 63.3958 92.489 61.9711 91.3116 60.9232C90.1333 59.874 88.1836 59.5979 86.9568 60.3062L84.5471 61.6973Z" fill="#E0E0E2"/>
                  <path d="M81.6583 70.0902L81.9849 68.8563C81.8707 69.2883 81.5723 69.676 81.0913 69.9536L80.7652 71.1875C81.2455 70.91 81.544 70.5222 81.6583 70.0902Z" fill="#D8D8DA"/>
                  <path d="M78.6811 71.345L78.3548 72.579L80.7645 71.1874L81.0908 69.9537L78.6811 71.345Z" fill="#D8D8DA"/>
                  <path d="M73.5218 68.6439L73.1953 69.8779C73.0181 70.548 73.2843 71.3249 74.0009 71.9628C75.1781 73.0109 77.1278 73.2871 78.3546 72.5789L78.6812 71.345C77.4543 72.0533 75.5046 71.7772 74.3274 70.7288C73.6108 70.0909 73.3446 69.3143 73.5218 68.6439Z" fill="#D8D8DA"/>
                  <path d="M74.4152 67.5471C73.1884 68.2555 73.149 69.6801 74.3275 70.7289C75.5047 71.7771 77.4544 72.0532 78.6812 71.3451L81.091 69.9539C82.3178 69.2456 82.3572 67.8209 81.1798 66.773C80.0015 65.7238 78.0518 65.4477 76.825 66.156L74.4152 67.5471Z" fill="#E0E0E2"/>
                  <path d="M71.5264 75.9403L71.8525 74.7063C71.7384 75.1379 71.4404 75.5254 70.9601 75.8025L70.634 77.0365C71.1143 76.7594 71.4125 76.3721 71.5264 75.9403Z" fill="#D8D8DA"/>
                  <path d="M68.5489 77.1944L68.2226 78.4286L70.6336 77.0364L70.96 75.8024L68.5489 77.1944Z" fill="#D8D8DA"/>
                  <path d="M63.3899 74.4938L63.0634 75.7277C62.8862 76.3979 63.1524 77.1748 63.869 77.8127C65.0462 78.8608 66.9959 79.1369 68.2227 78.4288L68.5488 77.1948C67.322 77.9031 65.3723 77.627 64.1951 76.5787C63.479 75.9408 63.2128 75.1641 63.3899 74.4938Z" fill="#D8D8DA"/>
                  <path d="M64.2836 73.3969C63.0568 74.1053 63.0174 75.5299 64.1959 76.5787C65.3731 77.6269 67.3228 77.903 68.5496 77.1948L70.9606 75.8029C72.1864 75.0952 72.2256 73.6707 71.0484 72.6226C69.8701 71.5734 67.9204 71.2973 66.6946 72.005L64.2836 73.3969Z" fill="#E0E0E2"/>
                  <path d="M89.8267 69.815L90.1532 68.581C90.1484 68.5992 90.1475 68.6177 90.1433 68.6361C90.2463 68.1826 90.5458 67.7731 91.0466 67.484L93.4563 66.0928C94.6831 65.3845 96.6328 65.6606 97.8111 66.7098C98.534 67.3534 98.7962 68.1385 98.6082 68.8131C98.6101 68.8065 98.6139 68.8002 98.6158 68.7937L98.2893 70.0276C98.1752 70.4596 97.8767 70.8473 97.3958 71.1249L94.986 72.5161C93.7592 73.2244 91.8095 72.9483 90.6323 71.8999C89.9157 71.262 89.6495 70.485 89.8267 69.815Z" fill="#C60024"/>
                  <path d="M98.2897 70.027L98.6162 68.793C98.5021 69.225 98.2036 69.6127 97.7227 69.8903L97.3962 71.1243C97.8771 70.8465 98.1756 70.4588 98.2897 70.027Z" fill="#A50020"/>
                  <path d="M95.3124 71.2818L94.9861 72.5157L97.3958 71.1244L97.7222 69.8902L95.3124 71.2818Z" fill="#A50020"/>
                  <path d="M90.1531 68.5807L89.8266 69.8147C89.6494 70.4848 89.9156 71.2617 90.6322 71.8996C91.8094 72.9477 93.7591 73.2238 94.9859 72.5157L95.312 71.2817C94.0852 71.9901 92.1355 71.7139 90.9583 70.6656C90.2426 70.0277 89.9761 69.2508 90.1531 68.5807Z" fill="#A50020"/>
                  <path d="M91.0466 67.484C89.8198 68.1923 89.7805 69.617 90.9588 70.6658C92.1361 71.7139 94.0857 71.99 95.3126 71.2819L97.7223 69.8908C98.9491 69.1824 98.9886 67.7578 97.8111 66.7098C96.6328 65.6606 94.6831 65.3845 93.4563 66.0928L91.0466 67.484Z" fill="#C60024"/>
                  <path d="M79.6949 75.6644L80.0214 74.4305C80.0165 74.4486 80.0157 74.4672 80.0115 74.4855C80.1144 74.032 80.414 73.6226 80.9147 73.3334L83.3245 71.9423C84.5513 71.2339 86.501 71.5101 87.6793 72.5592C88.4021 73.2028 88.6643 73.9879 88.4764 74.6627C88.4783 74.6562 88.4821 74.6496 88.484 74.6431L88.1575 75.8771C88.0433 76.3091 87.7449 76.6968 87.2639 76.9744L84.854 78.3655C83.6272 79.0738 81.6775 78.7977 80.5002 77.7493C79.7841 77.1113 79.5177 76.3344 79.6949 75.6644Z" fill="#FFDE56"/>
                  <path d="M88.1583 75.8769L88.4844 74.6429C88.3703 75.0749 88.0718 75.4626 87.5908 75.7402L87.2643 76.9742C87.7455 76.6964 88.0439 76.3086 88.1583 75.8769Z" fill="#FED322"/>
                  <path d="M85.1811 77.1313L84.8548 78.3653L87.2647 76.9742L87.5908 75.74L85.1811 77.1313Z" fill="#FED322"/>
                  <path d="M80.0218 74.4305L79.6957 75.6645C79.5185 76.3347 79.7847 77.1116 80.5013 77.7494C81.6785 78.7976 83.6282 79.0737 84.855 78.3656L85.1812 77.1316C83.9543 77.8399 82.0046 77.5638 80.8274 76.5154C80.1109 75.8774 79.8446 75.1007 80.0218 74.4305Z" fill="#FED322"/>
                  <path d="M80.9147 73.3335C79.6879 74.0418 79.6485 75.4665 80.827 76.5153C82.0042 77.5634 83.9539 77.8396 85.1807 77.1314L87.5905 75.7403C88.8173 75.032 88.8567 73.6073 87.6793 72.5594C86.501 71.5102 84.5513 71.2341 83.3245 71.9424L80.9147 73.3335Z" fill="#FFDE56"/>
                  <path d="M69.5628 81.5145L69.8889 80.2805C69.8843 80.2987 69.8832 80.3172 69.8792 80.3356C69.9822 79.8821 70.2817 79.4727 70.7825 79.1835L73.1935 77.7913C74.4192 77.0836 76.3687 77.3597 77.5472 78.4089C78.2703 79.0527 78.5325 79.8378 78.3446 80.5124C78.3463 80.5058 78.3503 80.4995 78.3522 80.493L78.0256 81.7269C77.9115 82.1585 77.6135 82.546 77.1332 82.8232L74.7221 84.2152C73.4953 84.9235 71.5456 84.6472 70.3684 83.599C69.6518 82.9611 69.3856 82.1845 69.5628 81.5145Z" fill="#65C27C"/>
                  <path d="M78.0265 81.7269L78.353 80.4929C78.2389 80.9245 77.9409 81.312 77.4605 81.5892L77.134 82.8231C77.6143 82.546 77.9124 82.1585 78.0265 81.7269Z" fill="#4DBA69"/>
                  <path d="M75.0494 82.9808L74.7231 84.215L77.1341 82.823L77.4604 81.5891L75.0494 82.9808Z" fill="#4DBA69"/>
                  <path d="M69.8896 80.2803L69.5635 81.5143C69.3863 82.1845 69.6525 82.9614 70.369 83.5992C71.5463 84.6474 73.496 84.9235 74.7228 84.2154L75.0493 82.9814C73.8225 83.6897 71.8728 83.4136 70.6956 82.3652C69.9788 81.7272 69.7124 80.9505 69.8896 80.2803Z" fill="#4DBA69"/>
                  <path d="M70.7831 79.1832C69.5563 79.8916 69.5169 81.3162 70.6954 82.365C71.8726 83.4132 73.8223 83.6893 75.0491 82.9812L77.4601 81.5892C78.6859 80.8815 78.7251 79.457 77.5479 78.4089C76.3696 77.3597 74.4199 77.0836 73.1941 77.7913L70.7831 79.1832Z" fill="#65C27C"/>
                  <path d="M18.5706 35.6536L24.0459 38.8246L43.0908 27.8128L37.6153 24.6418L18.5706 35.6536Z" fill="#ACABB1"/>
                  <path d="M11.2555 14.5921L11.2595 13.1742C11.2652 11.1538 11.9838 9.73315 13.1393 9.06786C13.1355 9.06996 13.1315 9.07186 13.1279 9.07376L27.9977 0.432932C29.1619 -0.243544 30.7732 -0.150099 32.5483 0.875056C36.0762 2.91187 38.9373 7.86762 38.9257 11.9214L38.8806 27.8843L24.011 36.5255L23.8613 36.4391L23.9066 20.4762C23.9167 16.9356 21.6829 12.6928 18.7465 10.4122L11.405 14.6784L11.2555 14.5921Z" fill="#C6C5CB"/>
                  <path d="M11.4093 13.2605C11.4148 11.2935 12.1117 9.90825 13.2341 9.25603L28.1035 0.61499C26.9811 1.26721 26.2842 2.65243 26.2787 4.61942L26.2747 6.03734L11.4051 14.6786L11.4093 13.2605Z" fill="#C6C5CB"/>
                  <path d="M11.2596 13.1744C11.2653 11.154 11.984 9.73336 13.1395 9.06807C13.1357 9.07018 13.1317 9.07207 13.1281 9.07397L27.9977 0.432932C29.1619 -0.243544 30.7732 -0.150099 32.5483 0.875056C36.0762 2.91187 38.9373 7.86762 38.9257 11.9214L38.8806 27.8843L24.011 36.5255L23.8612 36.4391L23.9066 20.4762C23.9178 16.5167 21.1239 11.6774 17.6782 9.68822C14.2326 7.69887 11.4204 9.30136 11.4092 13.2609L11.4052 14.6788L11.2558 14.5923L11.2596 13.1744Z" fill="#E0E0E2"/>
                  <defs>
                    <linearGradient id="paint0_linear" x1="7.3052" y1="68.755" x2="54.2662" y2="96.4098" gradientUnits="userSpaceOnUse">
                    <stop stop-color="#BEDCFF"/>
                    <stop offset="1" stop-color="#79BCFF"/>
                    </linearGradient>
                    <radialGradient id="paint1_radial" cx="0" cy="0" r="1" gradientUnits="userSpaceOnUse" gradientTransform="translate(13.0451 54.145) rotate(38.991) scale(56.3918 72.1329)">
                    <stop stop-color="#946EE5"/>
                    <stop offset="0.369792" stop-color="#515BE0"/>
                    </radialGradient>
                  </defs>
                </svg>