<svg width="33" height="34" viewBox="0 0 33 34" fill="none" xmlns="http://www.w3.org/2000/svg">
<path fill-rule="evenodd" clip-rule="evenodd" d="M19.4287 12.9526H16.1906V8.09537H11.3333V4.85722H16.1906V0H19.4287V4.85722H24.2859V8.09537H19.4287V12.9526ZM6.49287 30.7619C6.49287 28.9809 7.93384 27.5237 9.71482 27.5237C11.4958 27.5237 12.953 28.9809 12.953 30.7619C12.953 32.5428 11.4958 34 9.71482 34C7.93384 34 6.49287 32.5428 6.49287 30.7619ZM25.9052 27.5237C24.1242 27.5237 22.6833 28.9809 22.6833 30.7619C22.6833 32.5428 24.1242 34 25.9052 34C27.6862 34 29.1434 32.5428 29.1434 30.7619C29.1434 28.9809 27.6862 27.5237 25.9052 27.5237ZM23.5575 19.4291H11.4954L9.71445 22.6672H29.1433V25.9054H9.71445C7.25345 25.9054 5.69914 23.2663 6.88107 21.0967L9.06682 17.1462L3.23815 4.85739H0V1.61925H5.29437L12.1916 16.1909H23.5575L29.8234 4.85739L32.6405 6.41171L26.3909 17.7614C25.8404 18.7652 24.7718 19.4291 23.5575 19.4291Z" fill="url(#paint0_linear)"/>
<defs>
<linearGradient id="paint0_linear" x1="24.5878" y1="-88.5417" x2="-4.65599" y2="-85.7027" gradientUnits="userSpaceOnUse">
<stop stop-color="#FF8744"/>
<stop offset="1" stop-color="#4F038A"/>
</linearGradient>
</defs>
</svg>